# xmcd
# 
# Track frame offsets:
#     150
#     23322
#     41368
#     61120
#     79597
#     102079
#     122600
#     137909
#     154803
#     173428
# 
# Disc length: 2611
# 
# Revision: 1
# Processed by: cddbd v1.5.2PL0 Copyright (c) Steve Scherf et al.
# Submitted via: BonkEnc v1.0.8
# 
DISCID=670a310a
DTITLE=Various Artist - Jazzin' for Ghibli
DYEAR=2008
DGENRE=Jazz
TTITLE0=sal - あの夏へ
TTITLE1=sal feat.Agape of lsosceles/TWN - 君をのせて
TTITLE2=DJ DAVI - アシタカとサン
TTITLE3=DJ RYU(JAG SOUL) - 風の谷のナウシカ
TTITLE4=D.Locke - 風の通り道
TTITLE5=KGO - 海の見える街
TTITLE6=sal - テルーの唄
TTITLE7=nack - ナウシカレクイエム
TTITLE8=sal - マルコとジーナ
TTITLE9=Morphil - 人生のメリーゴーランド
EXTD=YEAR: 2008
EXTT0=
EXTT1=
EXTT2=
EXTT3=
EXTT4=
EXTT5=
EXTT6=
EXTT7=
EXTT8=
EXTT9=
PLAYORDER=
